<?xml version="1.0" standalone="no"?>
<!DOCTYPE svg PUBLIC "-//W3C//DTD SVG 20010904//EN"
 "http://www.w3.org/TR/2001/REC-SVG-20010904/DTD/svg10.dtd">
<svg version="1.0" xmlns="http://www.w3.org/2000/svg"
 width="800.000000pt" height="800.000000pt" viewBox="0 0 200.000000 200.000000"
 preserveAspectRatio="xMidYMid meet" style="background-color: black;">

<g transform="translate(0.000000,200.000000) scale(0.100000,-0.100000)"
fill="#fff" stroke="none">
<path d="M389 1822 c-112 -30 -178 -88 -214 -191 -19 -56 -20 -228 0 -541 19
-311 24 -354 46 -426 39 -128 167 -273 300 -339 118 -60 204 -75 434 -75 234
0 452 14 541 35 169 39 255 132 289 311 30 153 13 764 -25 893 -14 51 -55 107
-102 141 -107 78 -457 157 -863 195 -206 19 -323 18 -406 -3z m384 -172 c352
-21 572 -52 737 -102 78 -24 114 -55 129 -111 46 -174 75 -641 51 -810 -17
-116 -65 -181 -159 -219 -53 -21 -74 -23 -362 -26 -438 -5 -535 16 -670 144
-83 80 -118 152 -129 267 -15 153 -33 665 -25 725 16 136 72 153 428 132z"/>
<path d="M649 1509 c-21 -21 -21 -29 -6 -124 1 -5 -26 -12 -61 -17 -85 -9 -97
-14 -110 -43 -15 -33 0 -73 31 -80 13 -4 55 -5 93 -3 l69 3 3 -50 c4 -58 24
-85 63 -85 44 0 59 23 59 91 l0 59 64 0 c73 0 96 14 96 59 0 46 -27 61 -107
61 l-71 0 -7 50 c-12 89 -68 127 -116 79z"/>
<path d="M1205 1368 c-48 -5 -86 -15 -97 -25 -23 -21 -23 -65 1 -87 17 -16 34
-16 227 -5 187 10 211 14 227 31 23 26 22 53 -3 78 -18 18 -32 20 -147 19 -71
-1 -164 -6 -208 -11z"/>
<path d="M1278 1000 c-142 -11 -167 -17 -180 -45 -14 -30 -3 -71 21 -85 13 -7
50 -7 113 0 51 5 141 10 199 10 97 0 107 2 127 23 28 30 28 52 -3 82 -22 23
-32 25 -102 24 -43 -1 -122 -5 -175 -9z"/>
<path d="M525 975 c-14 -13 -25 -32 -25 -42 0 -9 27 -43 61 -74 66 -61 67 -70
20 -113 -35 -32 -26 -91 16 -107 30 -11 58 2 94 45 l27 31 46 -43 c53 -49 95
-56 120 -20 25 36 19 56 -35 113 l-51 54 32 45 c18 25 33 57 33 72 0 28 -33
64 -58 64 -19 0 -68 -43 -84 -73 l-14 -26 -64 50 c-35 27 -71 49 -79 49 -8 0
-26 -11 -39 -25z"/>
<path d="M1240 809 c-47 -4 -95 -11 -108 -14 -28 -7 -47 -45 -39 -78 9 -34 42
-45 112 -36 33 4 120 8 193 8 127 1 134 2 157 26 31 30 32 55 2 83 -21 20 -33
22 -128 21 -57 -1 -142 -5 -189 -10z"/>
</g>
</svg>
